<svg id="delivery" xmlns="http://www.w3.org/2000/svg" width="24" height="24" viewBox="0 0 24 24">
  <path id="Path_556" data-name="Path 556" d="M45.181,5.774,37.168.075a.375.375,0,0,0-.448,0L33.707,2.218a.45.45,0,0,0-.185.132L28.708,5.774a.649.649,0,0,0-.242.529V7.536H23.091a.548.548,0,0,0-.466.6.548.548,0,0,0,.466.6h5.375v2.172H25.8a.548.548,0,0,0-.466.6.548.548,0,0,0,.466.6h2.671v3.137H24.553a.624.624,0,0,0,0,1.207h3.913V17.7a.649.649,0,0,0,.242.529l8.013,5.7a.375.375,0,0,0,.448,0l8.013-5.7a.649.649,0,0,0,.242-.529V15a.482.482,0,1,0-.932,0v2.345L37.41,22.378V12.358l2.252-1.6V13.3a.655.655,0,0,0,.229.519.376.376,0,0,0,.462.009L42.07,12.6a.649.649,0,0,0,.241-.529v-3.2l2.18-1.551v2.848a.482.482,0,1,0,.932,0V6.3a.649.649,0,0,0-.242-.529Zm-8.7,16.6L29.4,17.342V7.322l7.081,5.036Zm.466-11.065L29.9,6.3l2.214-1.575,7.045,5.01ZM40.126,9.05,33.082,4.04l.764-.543,7.045,5.01Zm1.253,2.668-.785.56V10.094l.785-.559Zm.479-3.9-7.045-5.01,2.131-1.515L43.989,6.3Zm0,0" transform="translate(-21.423 -0.001)" fill="#52341e"/>
  <path id="Path_557" data-name="Path 557" d="M492.532,198.563a.532.532,0,1,0,.376.156A.533.533,0,0,0,492.532,198.563Zm0,0" transform="translate(-469.063 -186.507)" fill="#52341e"/>
  <path id="Path_558" data-name="Path 558" d="M1.293,252.891H.532a.532.532,0,0,0,0,1.063h.762a.532.532,0,0,0,0-1.063Zm0,0" transform="translate(0 -237.537)" fill="#52341e"/>
  <path id="Path_559" data-name="Path 559" d="M41.735,181.423a.532.532,0,1,0-.156.376A.535.535,0,0,0,41.735,181.423Zm0,0" transform="translate(-38.51 -169.908)" fill="#52341e"/>
</svg>
