<svg xmlns="http://www.w3.org/2000/svg" width="24" height="24" viewBox="0 0 24 24">
  <g id="delivery_truck" transform="translate(8.115 4.296)">
    <path id="Path_570" data-name="Path 570" d="M22.32,104.236l-.622-3.93a.594.594,0,0,0,.3-.581v-.634c0-1.376-.708-2.5-1.578-2.5H17.587V95.29c0-.677-.348-1.228-.777-1.228H2.38c-.428,0-.777.551-.777,1.228v10.772c0,.328.168.594.376.594s.376-.266.376-.594V95.29c0-.022.011-.04.025-.04H16.81c.014,0,.025.018.025.04v10.772c0,.328.168.594.376.594s.376-.266.376-.594v-.673h4.435c.545,0,1.009.567,1.168,1.347H22.021c-.208,0-.376.266-.376.594V108.6c0,1.026.528,1.861,1.177,1.861h.426v2.614h-.983c-.323-1.473-1.209-2.535-2.249-2.535s-1.926,1.061-2.249,2.535h-.181V108.6c0-.328-.168-.594-.376-.594s-.376.266-.376.594v4.475h-7.8c-.323-1.473-1.209-2.535-2.249-2.535S4.863,111.6,4.54,113.072H2.38c-.014,0-.025-.018-.025-.04v-1.307H3.983c.208,0,.376-.266.376-.594s-.168-.594-.376-.594H.376c-.208,0-.376.266-.376.594s.168.594.376.594H1.6v1.307c0,.677.348,1.228.777,1.228H4.41c0,.013,0,.026,0,.04,0,2.075,1.068,3.762,2.38,3.762s2.38-1.688,2.38-3.762c0-.013,0-.026,0-.04h8.469c0,.013,0,.026,0,.04,0,2.075,1.068,3.762,2.38,3.762s2.38-1.688,2.38-3.762c0-.013,0-.026,0-.04h1.228c.208,0,.376-.266.376-.594v-6.337C24,105.765,23.27,104.465,22.32,104.236Zm-4.733-6.452h2.831c.456,0,.827.586.827,1.307v.04H17.587Zm0,6.416v-3.881h3.339l.614,3.881Zm-10.8,12.673c-.9,0-1.628-1.155-1.628-2.574s.731-2.574,1.628-2.574,1.628,1.155,1.628,2.574S7.687,116.874,6.789,116.874Zm13.228,0c-.9,0-1.628-1.155-1.628-2.574s.731-2.574,1.628-2.574,1.628,1.155,1.628,2.574S20.915,116.874,20.017,116.874Zm3.232-7.6h-.426c-.235,0-.426-.3-.426-.673v-.673h.852v1.347Z" transform="translate(-8.115 -98.358)" fill="#52341e"/>
    <path id="Path_571" data-name="Path 571" d="M129.192,350.6a.925.925,0,1,0,.925.925A.926.926,0,0,0,129.192,350.6Z" transform="translate(-130.449 -334.652)" fill="#52341e"/>
    <path id="Path_572" data-name="Path 572" d="M411.38,350.6a.925.925,0,1,0,.925.925A.926.926,0,0,0,411.38,350.6Z" transform="translate(-400.238 -334.652)" fill="#52341e"/>
    <path id="Path_573" data-name="Path 573" d="M212.357,316.393h-6.683a.448.448,0,1,0,0,.9h6.683a.448.448,0,0,0,0-.9Z" transform="translate(-204.384 -304.002)" fill="#52341e"/>
    <path id="Path_574" data-name="Path 574" d="M23.277,282.188H17.55a.448.448,0,1,0,0,.9h5.728a.448.448,0,1,0,0-.9Z" transform="translate(-24.262 -272.364)" fill="#52341e"/>
    <path id="Path_575" data-name="Path 575" d="M152.816,171.154a.448.448,0,0,0-.633,0l-3.98,3.98-2.07-2.07a.447.447,0,1,0-.633.633l2.387,2.387a.447.447,0,0,0,.633,0l4.3-4.3A.448.448,0,0,0,152.816,171.154Z" transform="translate(-147.139 -169.049)" fill="#52341e"/>
  </g>
</svg>
