<svg xmlns="http://www.w3.org/2000/svg" width="28.58" height="18.079" viewBox="0 0 28.58 18.079">
  <g id="deliverytuck" transform="translate(8.115 4.296)">
    <path id="Path_570" data-name="Path 570" d="M26.579,101.726l-.74-2.96a.448.448,0,0,0,.354-.438v-.477a1.882,1.882,0,0,0-1.879-1.879H20.943v-.985a.926.926,0,0,0-.925-.925H2.834a.926.926,0,0,0-.925.925V103.1a.448.448,0,0,0,.9,0V94.987a.03.03,0,0,1,.03-.03H20.018a.03.03,0,0,1,.03.03V103.1a.448.448,0,1,0,.9,0v-.507h5.281a1.464,1.464,0,0,1,1.391,1.014H26.223a.448.448,0,0,0-.448.448v.955a1.4,1.4,0,0,0,1.4,1.4h.507v1.969h-1.17a2.833,2.833,0,0,0-5.357,0h-.215v-3.371a.448.448,0,1,0-.9,0v3.371H10.763a2.833,2.833,0,0,0-5.357,0H2.834a.03.03,0,0,1-.03-.03v-.984H4.743a.448.448,0,0,0,0-.9H.448a.448.448,0,0,0,0,.9H1.909v.984a.926.926,0,0,0,.925.925H5.251c0,.01,0,.02,0,.03a2.834,2.834,0,1,0,5.668,0c0-.01,0-.02,0-.03H21c0,.01,0,.02,0,.03a2.834,2.834,0,1,0,5.668,0c0-.01,0-.02,0-.03h1.463a.448.448,0,0,0,.448-.448v-4.773A2.36,2.36,0,0,0,26.579,101.726Zm-5.637-4.86h3.371a.986.986,0,0,1,.985.984v.03H20.943Zm0,4.833V98.776h3.976l.731,2.924ZM8.085,111.246a1.939,1.939,0,1,1,1.939-1.939A1.941,1.941,0,0,1,8.085,111.246Zm15.752,0a1.939,1.939,0,1,1,1.939-1.939A1.941,1.941,0,0,1,23.837,111.246Zm3.848-5.728h-.507a.508.508,0,0,1-.507-.507V104.5h1.014v1.014Z" transform="translate(-8.115 -98.358)" fill="#52341e"/>
    <path id="Path_571" data-name="Path 571" d="M129.192,350.6a.925.925,0,1,0,.925.925A.926.926,0,0,0,129.192,350.6Z" transform="translate(-129.222 -340.573)" fill="#52341e"/>
    <path id="Path_572" data-name="Path 572" d="M411.38,350.6a.925.925,0,1,0,.925.925A.926.926,0,0,0,411.38,350.6Z" transform="translate(-395.658 -340.573)" fill="#52341e"/>
    <path id="Path_573" data-name="Path 573" d="M212.357,316.393h-6.683a.448.448,0,1,0,0,.9h6.683a.448.448,0,0,0,0-.9Z" transform="translate(-201.886 -308.278)" fill="#52341e"/>
    <path id="Path_574" data-name="Path 574" d="M23.277,282.188H17.55a.448.448,0,1,0,0,.9h5.728a.448.448,0,1,0,0-.9Z" transform="translate(-24.262 -275.983)" fill="#52341e"/>
    <path id="Path_575" data-name="Path 575" d="M152.816,171.154a.448.448,0,0,0-.633,0l-3.98,3.98-2.07-2.07a.447.447,0,1,0-.633.633l2.387,2.387a.447.447,0,0,0,.633,0l4.3-4.3A.448.448,0,0,0,152.816,171.154Z" transform="translate(-145.37 -171.022)" fill="#52341e"/>
  </g>
</svg>
