<svg id="Layer_6" xmlns="http://www.w3.org/2000/svg" width="139.174" height="131.611" viewBox="0 0 139.174 131.611">
  <g id="Group_348" data-name="Group 348" transform="translate(0 0)">
    <path id="Path_324" data-name="Path 324" d="M193.462,97.54,183.407,57.1a1.126,1.126,0,0,0-1.25-.815l-32.178,5A1.213,1.213,0,0,0,149,62.426l2.718,41.582a2.207,2.207,0,0,0,2.337,2.12h.272l37.4-5.816a2.221,2.221,0,0,0,1.848-2.555A.217.217,0,0,1,193.462,97.54Z" transform="translate(-67.986 -29.448)" fill="#fc657e"/>
    <path id="Path_325" data-name="Path 325" d="M124,94.791l-2.718-41.581a1.084,1.084,0,0,1,.978-1.141l14.567-2.283-3.153-12.61a1.526,1.526,0,0,0-1.631-1.087l-42.4,6.577a1.434,1.434,0,0,0-1.25,1.522L91.93,98.922a2.959,2.959,0,0,0,3.044,2.826.689.689,0,0,0,.326-.054l31.254-4.838A2.262,2.262,0,0,1,124,95.008C124.054,94.954,124,94.9,124,94.791Z" transform="translate(-40.322 -20.231)" fill="#f5c84c"/>
    <ellipse id="Ellipse_34" data-name="Ellipse 34" cx="9.403" cy="9.403" rx="9.403" ry="9.403" transform="translate(49.814 111.521)" fill="#29589f"/>
    <ellipse id="Ellipse_35" data-name="Ellipse 35" cx="9.403" cy="9.403" rx="9.403" ry="9.403" transform="translate(96.233 111.521)" fill="#29589f"/>
    <path id="Path_326" data-name="Path 326" d="M22,47.469h-.326L5.642,45.892a3.464,3.464,0,0,1,.6-6.9l16.089,1.576a3.46,3.46,0,0,1-.326,6.9Z" transform="translate(-1.105 -21.556)" fill="#fc657e"/>
    <path id="Path_327" data-name="Path 327" d="M154.423,177.141H89.252l5.653-8.208a13.052,13.052,0,0,1,8.642-5.49l43.43-7.12a3.268,3.268,0,0,0,2.718-3.75,3.325,3.325,0,0,0-3.261-2.772l-45.278,7.392a19.871,19.871,0,0,0-11.632,7.936L82.077,176a4.884,4.884,0,0,0,1.25,6.794,5.065,5.065,0,0,0,2.772.87h68.324a3.271,3.271,0,0,0,3.261-3.261A3.2,3.2,0,0,0,154.423,177.141Z" transform="translate(-37.046 -72.142)" fill="#dae6f1"/>
    <ellipse id="Ellipse_36" data-name="Ellipse 36" cx="3.37" cy="3.37" rx="3.37" ry="3.37" transform="translate(55.848 117.555)" fill="#5290db"/>
    <ellipse id="Ellipse_37" data-name="Ellipse 37" cx="3.37" cy="3.37" rx="3.37" ry="3.37" transform="translate(102.267 117.555)" fill="#5290db"/>
    <path id="Path_328" data-name="Path 328" d="M247.449,156.463h-1.141v-1.141a1.522,1.522,0,1,0-3.044,0v1.141h-1.141a1.522,1.522,0,1,0,0,3.044h1.141v1.141a1.522,1.522,0,1,0,3.044,0v-1.141h1.141a1.522,1.522,0,0,0,0-3.044Z" transform="translate(-109.797 -73.968)" fill="#70d6f9"/>
    <path id="Path_329" data-name="Path 329" d="M80.887,26.921a5.334,5.334,0,0,1-4.294-4.185c0-.054-.054-.109-.109-.054a.053.053,0,0,0-.054.054,5.265,5.265,0,0,1-4.294,4.185c-.054,0-.109.054-.054.109a.053.053,0,0,0,.054.054,5.334,5.334,0,0,1,4.294,4.185c0,.054.054.109.109.054a.053.053,0,0,0,.054-.054,5.265,5.265,0,0,1,4.294-4.185c.054,0,.109-.054.054-.109,0-.054,0-.054-.054-.054Z" transform="translate(-32.866 -14.108)" fill="#f5c84c"/>
    <ellipse id="Ellipse_38" data-name="Ellipse 38" cx="1.631" cy="1.631" rx="1.631" ry="1.631" transform="translate(33.182 23.303)" fill="#fc657e"/>
    <ellipse id="Ellipse_39" data-name="Ellipse 39" cx="1.631" cy="1.631" rx="1.631" ry="1.631" transform="translate(29.377 70.592)" fill="#87d147"/>
    <ellipse id="Ellipse_40" data-name="Ellipse 40" cx="1.631" cy="1.631" rx="1.631" ry="1.631" transform="translate(127.759 92.877)" fill="#f5c84c"/>
    <path id="Path_330" data-name="Path 330" d="M4.327,32.623l16.035,1.522a2.339,2.339,0,0,0,.87,0L45.093,88.88A9.9,9.9,0,0,0,55.366,94.8a19.645,19.645,0,0,0-4.077,4.4L43.843,109.97a6.231,6.231,0,0,0,1.631,8.7,6.3,6.3,0,0,0,3.533,1.087H52a10.743,10.743,0,1,0,15.165.924,7.42,7.42,0,0,0-.924-.924H98.416a10.743,10.743,0,1,0,15.165.924,7.421,7.421,0,0,0-.924-.924h4.62a4.62,4.62,0,1,0,0-9.24H54.769l4.185-6.033a11.65,11.65,0,0,1,7.718-4.892l43.43-7.121a4.624,4.624,0,0,0,3.8-5.327,4.287,4.287,0,0,0-.707-1.794l12.61-2.065A5.8,5.8,0,0,0,130.7,77.52V45.179a4.558,4.558,0,0,0-4.566-4.566h-.109l-7.773.217L116.624,34.2a2.469,2.469,0,0,0-2.772-1.794l-3.316.489-.109-.707A12.884,12.884,0,0,0,95.752,21.425a16.626,16.626,0,0,0-2.229.544,2.922,2.922,0,0,0-2.12-.544l-4.783.761L86.4,20.828a16.479,16.479,0,0,0-32.559,5.109l.217,1.359-4.946.761a2.832,2.832,0,0,0-2.392,2.935l.761,11.741-19.242.544-4.4-10.056a4.844,4.844,0,0,0,.87-6.794,4.8,4.8,0,0,0-3.37-1.848L5.251,23.056A4.822,4.822,0,0,0-.021,27.4a4.742,4.742,0,0,0,4.348,5.218ZM51.942,70.29,50.529,48.44,66.618,85.292l-7.61,1.2Zm4.24,16.633-1.413.217a1.556,1.556,0,0,1-1.794-1.3v-.217l-.489-7.284ZM87.708,35.775a10.123,10.123,0,0,1,4.62-10.164l2.446,9.784-6.957,1.087ZM114.939,43.6l2.935,6.74,6.2,24.949v.054a.9.9,0,0,1-.6,1.087h-.109l-2.12.326L106.895,43.82Zm-10.925.326,14.513,33.32-7.61,1.2L95.97,44.2Zm8.751,38.755L112,80.944l7.61-1.2.707,1.685ZM92.056,86.108l-.815-1.9,7.61-1.2.815,1.848Zm-1.9-4.457L84.175,67.9,82.761,45.994l15,34.515Zm-4.131.6a.866.866,0,0,1-.978-.761v-.109l-.38-5.544,2.718,6.2Zm2.446,2.392.815,1.9-7.555,1.25-.87-1.957Zm-9.512,3.587L71.4,89.478l-.87-2.065,7.61-1.2Zm23.481-3.8-.815-1.794,7.61-1.2.761,1.739ZM93.034,44.2l15.056,34.624-7.61,1.2L84.99,44.418Zm-10.6-2.392-.109-1.739,3.261-.489.326,2.12Zm-1.522,18.7L74.065,44.744l5.816-.163ZM71.129,44.8,81.457,68.5l.87,13.045a3.452,3.452,0,0,0,.272,1.25l-2.826.435L63.085,45.015Zm-10.98.326,16.8,38.538-7.61,1.2L52.16,45.342Zm7.555,42.723.924,2.065-7.555,1.25-.924-2.12Zm-.489,40.005a8.045,8.045,0,1,1-8.045-8.045A8.026,8.026,0,0,1,67.216,127.852Zm46.419,0a8.045,8.045,0,1,1-8.045-8.045A8.026,8.026,0,0,1,113.635,127.852Zm-2.392-40.277a1.9,1.9,0,0,1-1.576,2.174l-43.43,7.12a14.523,14.523,0,0,0-9.512,6.033l-5.653,8.262a1.384,1.384,0,0,0,.326,1.9,1.248,1.248,0,0,0,.761.217h65.172a1.9,1.9,0,0,1,0,3.8H49.061a3.526,3.526,0,0,1-3.533-3.533,3.416,3.416,0,0,1,.652-2.011l7.447-10.762a18.258,18.258,0,0,1,10.817-7.392L109.558,86a1.848,1.848,0,0,1,1.685,1.576Zm14.187-6.957-2.283.38-.707-1.631,1.413-.217a3.616,3.616,0,0,0,2.99-4.131c0-.109-.054-.272-.054-.38l-2.337-9.295,3.642,8.371v3.859a3.145,3.145,0,0,1-2.663,3.044Zm.707-37.287a1.8,1.8,0,0,1,1.9,1.794v21.8l-7.555-17.394-1.468-5.979Zm-12.012-8.208,1.413,5.762-26.906.707-.38-2.5,20.057-3.1.435,2.772a1.376,1.376,0,1,0,2.718-.435l-.435-2.772ZM96.187,24.143a10.138,10.138,0,0,1,11.578,8.479l.109.707L97.437,34.96l-2.609-10.49a7,7,0,0,1,1.359-.326Zm-7.012.435a13.094,13.094,0,0,0-1.848,2.011L87.055,24.9Zm-32.667.978a13.815,13.815,0,1,1,27.286-4.348v.109l.217,1.359-27.286,4.24ZM49.5,30.774l4.946-.761.652,4.077a1.349,1.349,0,1,0,2.663-.435l-.652-4.077,27.286-4.24.652,4.077a1.289,1.289,0,0,0,.489.815,12.375,12.375,0,0,0-.489,5.979l.109.707-3.424.544a2.537,2.537,0,0,0-2.12,2.609l.109,1.848-29.569.815-.761-11.849a.117.117,0,0,1,.109-.109Zm-.761,32.178L41.18,45.613l6.414-.163Zm-10.49-17.23L49.224,71,50.2,85.782a4.319,4.319,0,0,0,4.511,4.131,1.5,1.5,0,0,0,.489-.054l2.12-.326.924,2.174-2.826.489a7.266,7.266,0,0,1-7.827-4.24L29.385,45.939Zm-33.265-20,16.035,1.522a2.1,2.1,0,0,1-.38,4.185L4.6,29.959a2.129,2.129,0,0,1,.38-4.24Z" transform="translate(0.046 -6.928)"/>
    <path id="Path_331" data-name="Path 331" d="M104.929,230.158a4.729,4.729,0,1,0-4.729-4.729A4.732,4.732,0,0,0,104.929,230.158Zm0-6.74a2.006,2.006,0,0,1,2.011,2.011,2.042,2.042,0,0,1-2.011,2.011,2.011,2.011,0,1,1,0-4.022Z" transform="translate(-45.711 -104.504)"/>
    <path id="Path_332" data-name="Path 332" d="M190.329,230.158a4.729,4.729,0,1,0-4.729-4.729A4.732,4.732,0,0,0,190.329,230.158Zm0-6.74a2.011,2.011,0,1,1-2.011,2.011A2.006,2.006,0,0,1,190.329,223.418Z" transform="translate(-84.692 -104.504)"/>
  </g>
</svg>
