<svg xmlns="http://www.w3.org/2000/svg" width="83.985" height="84.064" viewBox="0 0 83.985 84.064">
  <g id="logo" transform="translate(-78.537 -5.455)">
    <g id="Group_710" data-name="Group 710">
      <g id="Group_709" data-name="Group 709">
        <path id="Path_652" data-name="Path 652" d="M106.18,60.351c-1.118-5.842.985-10.605,4.6-14.945.336-.4.683-.691,1.346-.246.027-.466.075-.809.06-1.151-.048-1.1-.147-2.2-.177-3.307a4.543,4.543,0,0,1,3.483-4.655,9.2,9.2,0,0,1,2.756.268,10.875,10.875,0,0,1,.924.671c.825.679,1.891,1.128,2.377,2.129.21.432.293,1.322.058,1.5-.6.443-.587.993-.707,1.57a3.084,3.084,0,0,1-.351.734c-.446.863-1.328,1.624-.547,2.784l-.795.168a1.519,1.519,0,0,1-.425.646c-.222.214-.569.369-.668.625-.235.607-.612.478-1,.283-.515-.256-1.007-.559-1.6-.892a1.936,1.936,0,0,0-.106.723c.141.493.405.95.547,1.443.222.768.4,1.549.563,2.331.153.738.379,1.392,1.219,1.593.08.019.208.068.217.12.111.638.562.287.788.33l-1.769-1.211c.753-.607,1.424-1.193,2.143-1.713a1.863,1.863,0,0,1,1.938-.2A5.218,5.218,0,0,1,122.94,51.6l-.676.41a.774.774,0,0,0,.432-.057c.948-.29,1.885-.643,2.853-.836a2.43,2.43,0,0,0,1.216-.581c.956-.844,1.925-1.674,2.89-2.508.393-.34.788-.677,1.227-1.052.156.672.262,1.259.436,1.825a.517.517,0,0,1-.253.677c-.891.617-1.757,1.27-2.651,1.883a1.694,1.694,0,0,0-.769,1.085c-.3,1.28-.545,1.4-1.841,1.093a2.181,2.181,0,0,0-1.918.387l1.422-.264.051.173-.631.6c.516.946,1.088,1.828,1.5,2.779A8.832,8.832,0,0,0,129.9,61.16c.431.272.867.536,1.3.809a3.466,3.466,0,0,0,2.826.677c.091,1.485-1.174.912-1.772,1.213,3.147.887.5.363,3.616,1.242-2.808-.278,3.35,2.235.575,1.917s-6.98,4.522-9.781,4.412-7.747.08-10.548.191-6.138-2.109-8.631-4.411c-2.756.315-1.726-.767-2.109-1.534-.013-.041,5.55-.835,0,0,2.809-.813.068-.791,2.809-1.584A9.892,9.892,0,0,1,106.18,60.351Zm19.021.083c-.834-.814-1.7-1.6-2.569-2.375-.708-.63-1.447-1.226-2.2-1.862a15.029,15.029,0,0,0-.976,1.4,1.154,1.154,0,0,0,.037.764c.348,1.208.317,1.153-.652,1.893-1.066.816-2.048,1.741-3.189,2.724h10.277A2.891,2.891,0,0,0,125.2,60.434Z" fill="#563823"/>
        <path id="Path_653" data-name="Path 653" d="M126.12,25.2c.158-.169.316-.337.473-.506a3.932,3.932,0,0,0,.437-.548c-1.031.408-1.751.2-2.053-1.007-.035,1.111-.383,1.81-1.67,1.659,1.027.394,1.677.9,1.081,2.123.681-.864,1.357-1.284,2.283-.366l.046-.182Z" fill="#563823"/>
        <path id="Path_654" data-name="Path 654" d="M119.692,26.725l-.713,1.087-1.274-.306.788,1.048-.595.978a1.31,1.31,0,0,1,2,.665c-.23-1.031.119-1.613,1.3-1.746-.592-.2-1.079-.221-1.306-.476C119.689,27.743,119.763,27.259,119.692,26.725Z" fill="#563823"/>
        <path id="Path_655" data-name="Path 655" d="M132.343,31.7c-1.142.241-1.606-.213-1.7-1.222-.24.974-.72,1.441-1.774,1.1.754.562,1.255,1.139.576,2.042.351-.19.709-.539,1.051-.524s.64.407.988.655C131.3,32.582,131.3,32.582,132.343,31.7Z" fill="#563823"/>
        <path id="Path_656" data-name="Path 656" d="M124.8,51.035a2.517,2.517,0,0,0,1.948-.712c.823-.785,1.7-1.511,2.587-2.285l-.454-.5Z" fill="#563823"/>
        <path id="Path_657" data-name="Path 657" d="M123,36.749c1.086.132,1.086.132,1.524,1.2.121-.882.48-1.384,1.442-1.208A1.174,1.174,0,0,1,125.322,35l-.848.619-1.077-.706C123.9,35.762,123.9,36.382,123,36.749Z" fill="#563823"/>
        <path id="Path_658" data-name="Path 658" d="M128.3,42.248l-.43-.553-.524,1.077c.552.052.259.65.375,1.127l.537-.626.816.25-.418-.735.465-.708Z" fill="#563823"/>
        <path id="Path_659" data-name="Path 659" d="M114.175,26.708l-.347.488.353.5.574-.2v-.616Z" fill="#563823"/>
        <path id="Path_660" data-name="Path 660" d="M122.313,24.931h.638l.2-.587-.536-.357A.668.668,0,0,0,122.313,24.931Z" fill="#563823"/>
        <path id="Path_661" data-name="Path 661" d="M136.953,32.693l.2-.38-.593-.335.327-.3-.583.29.056.58Z" fill="#563823"/>
        <path id="Path_662" data-name="Path 662" d="M122.792,33.9l.217-.61-.5-.348-.522.37A.7.7,0,0,0,122.792,33.9Z" fill="#563823"/>
        <path id="Path_663" data-name="Path 663" d="M131.642,36.766l-.555-.222-.409.433.306.541.6-.171Z" fill="#563823"/>
        <path id="Path_664" data-name="Path 664" d="M128.151,46.222l-.479-.374-.486.375.2.55.6.028Z" fill="#563823"/>
        <path id="Path_665" data-name="Path 665" d="M104.621,40.247h.587l.209-.589-.509-.33-.494.339Z" fill="#563823"/>
        <path id="Path_666" data-name="Path 666" d="M135.863,45.81v.6l.6.187.319-.523-.342-.463Z" fill="#563823"/>
        <path id="Path_667" data-name="Path 667" d="M123.375,47.315l.532-.285-.094-.578-.614-.106-.261.562Z" fill="#563823"/>
        <path id="Path_668" data-name="Path 668" d="M124.452,48.487l.606.281-.37.352.594-.325-.11-.6-.579-.077-.277.528Z" fill="#563823"/>
        <path id="Path_669" data-name="Path 669" d="M125.409,42.74l.185-.709-.479-.379-.578.5Z" fill="#563823"/>
      </g>
    </g>
    <path id="Path_670" data-name="Path 670" d="M156.2,39.825" fill="#faf9f8"/>
    <path id="Path_671" data-name="Path 671" d="M155.77,37.829" fill="#faf9f8"/>
    <path id="Path_672" data-name="Path 672" d="M157.978,53.1c-.931-1-1.883-.869-2.579-1.439-.789-.645-.968.541-1.451.836-.694.423.008.729.292,1.014C155.635,54.912,156.513,53.126,157.978,53.1Z" fill="#faf9f8"/>
    <path id="Path_673" data-name="Path 673" d="M93.026,52.715c-.831-.318-1.6-.619-2.375-.908-.731-.273-1.033.428-1.515.7a.415.415,0,0,0-.118.671c.411.427.945.987,1.5.729C91.307,53.541,92.387,53.775,93.026,52.715Z" fill="#faf9f8"/>
    <path id="Path_674" data-name="Path 674" d="M148.046,52.879c.648.864,1.7.715,2.5,1.048.561.232,1.092-.336,1.516-.753a.38.38,0,0,0-.135-.649c-.536-.2-.821-1.075-1.516-.717C149.669,52.191,148.729,52.138,148.046,52.879Z" fill="#faf9f8"/>
    <path id="Path_675" data-name="Path 675" d="M152.943,53.442c-.484.132-.527.595-.783.87-1.039,1.118.5,1.955.319,2.993-.038.22.529.353.627.167a6.746,6.746,0,0,0,.944-2.313C154.113,54.489,153.417,53.943,152.943,53.442Z" fill="#faf9f8"/>
    <path id="Path_676" data-name="Path 676" d="M83.162,52.739c.773.926,1.689.735,2.377,1.106.842.454,1.157-.387,1.688-.672a.36.36,0,0,0-.028-.645c-.539-.267-.828-1.107-1.694-.674A24.784,24.784,0,0,1,83.162,52.739Z" fill="#faf9f8"/>
    <path id="Path_677" data-name="Path 677" d="M88.109,53.5c-2.006,1.435-.555,2.652-.02,4.219C88.886,56.1,90.026,54.782,88.109,53.5Z" fill="#faf9f8"/>
    <path id="Path_678" data-name="Path 678" d="M152.834,52.171c1.782-.918.8-2.288.476-3.513-.127-.478-.768-.551-.817-.063C152.372,49.789,150.807,51.173,152.834,52.171Z" fill="#faf9f8"/>
    <path id="Path_679" data-name="Path 679" d="M156.2,39.825" fill="#8f4a4d"/>
    <path id="Path_680" data-name="Path 680" d="M155.77,37.829" fill="#8f4a4d"/>
    <path id="Path_681" data-name="Path 681" d="M88.168,52.2c1.341-1.6,1.341-1.6-.343-4.525C87.865,49.458,86.089,50.884,88.168,52.2Z" fill="#faf9f8"/>
    <path id="Path_682" data-name="Path 682" d="M120.247,89.519C96.629,89,79,70.659,78.547,48.68,78.03,23.84,97.255,4.913,121.809,5.467A41.691,41.691,0,0,1,162.517,48.24C162.166,71.334,143.5,89.354,120.247,89.519Zm.034-82.609A40.528,40.528,0,1,0,161.04,47.441,40.608,40.608,0,0,0,120.281,6.91Z" fill="#d69358"/>
    <path id="Path_683" data-name="Path 683" d="M157.978,53.1c-1.465.025-2.343,1.811-3.738.411-.284-.285-.986-.591-.292-1.014.483-.3.662-1.481,1.451-.836C156.1,52.232,157.047,52.1,157.978,53.1Z" fill="#563823"/>
    <path id="Path_684" data-name="Path 684" d="M93.026,52.715c-.639,1.06-1.719.826-2.51,1.195-.553.258-1.087-.3-1.5-.729a.415.415,0,0,1,.118-.671c.482-.275.784-.976,1.515-.7C91.425,52.1,92.195,52.4,93.026,52.715Z" fill="#563823"/>
    <path id="Path_685" data-name="Path 685" d="M148.046,52.879c.683-.741,1.623-.688,2.367-1.071.7-.358.98.518,1.516.717a.38.38,0,0,1,.135.649c-.424.417-.955.985-1.516.753C149.742,53.594,148.694,53.743,148.046,52.879Z" fill="#563823"/>
    <path id="Path_686" data-name="Path 686" d="M152.943,53.442c.474.5,1.17,1.047,1.107,1.717a6.746,6.746,0,0,1-.944,2.313c-.1.186-.665.053-.627-.167.179-1.038-1.358-1.875-.319-2.993C152.416,54.037,152.459,53.574,152.943,53.442Z" fill="#563823"/>
    <path id="Path_687" data-name="Path 687" d="M83.162,52.739a24.784,24.784,0,0,0,2.343-.885c.866-.433,1.155.407,1.694.674a.36.36,0,0,1,.028.645c-.531.285-.846,1.126-1.688.672C84.851,53.474,83.935,53.665,83.162,52.739Z" fill="#563823"/>
    <path id="Path_688" data-name="Path 688" d="M88.109,53.5c1.917,1.283.777,2.6-.02,4.219C87.554,56.151,86.1,54.934,88.109,53.5Z" fill="#563823"/>
    <path id="Path_689" data-name="Path 689" d="M152.834,52.171c-2.027-1-.462-2.382-.341-3.576.049-.488.69-.415.817.063C153.634,49.883,154.616,51.253,152.834,52.171Z" fill="#563823"/>
    <path id="Path_690" data-name="Path 690" d="M88.168,52.2c-2.079-1.312-.3-2.738-.343-4.525C89.509,50.594,89.509,50.594,88.168,52.2Z" fill="#563823"/>
    <g id="Group_711" data-name="Group 711">
      <path id="Path_691" data-name="Path 691" d="M102.569,15.128c.015.015.092.136.23.363a.1.1,0,0,1-.008.139.908.908,0,0,1-.289.145.92.92,0,0,0-.322.177,1.1,1.1,0,0,0-.192.285l4.037,4.225a1.6,1.6,0,0,1,.347,1.27l1.446-.056q.334.351-.145.809a1.735,1.735,0,0,1-.485.331,14.937,14.937,0,0,0-3.587.384,3.3,3.3,0,0,1-.972,1.9,4.136,4.136,0,0,1-2.92.825,7.194,7.194,0,0,1-2.987-.583q-.45-.648-.187-.9a.894.894,0,0,1,.35-.189q3.678,1.133,4.752.105a2.07,2.07,0,0,0,.651-1.888,3.179,3.179,0,0,0-.889-1.729l-.1-.1-.072-.062a4.3,4.3,0,0,0-1.544-.709,1.678,1.678,0,0,0-1.654.27,1.439,1.439,0,0,0-.382.94,1.131,1.131,0,0,0,.205.9.544.544,0,0,0,.341.14.411.411,0,0,0,.347-.084.849.849,0,0,0,.061-.321.734.734,0,0,1,.224-.476.549.549,0,0,1,.876.052q.684.715-.161,1.522a1.816,1.816,0,0,1-1.239.536,1.482,1.482,0,0,1-1.164-.468,1.885,1.885,0,0,1-.483-.965,1.547,1.547,0,0,0-.56.185,4.664,4.664,0,0,0-1.151.837,5.319,5.319,0,0,0-.785.9.511.511,0,0,1-.635-.15c-.082-.087-.079-.313.01-.68a4.027,4.027,0,0,1,.578-.639,4.867,4.867,0,0,1,2.468-1.353,3.558,3.558,0,0,1,.858-1.752,1.789,1.789,0,0,1,1.22-.5,2.341,2.341,0,0,1,.812-1.489,1.864,1.864,0,0,1,1.415-.493,1.028,1.028,0,0,1,.347-1.22,2.616,2.616,0,0,1,.627-.439C102.188,14.978,102.424,14.976,102.569,15.128Zm2.5,6.041L101.4,17.324a2.737,2.737,0,0,0-1.353.653,1.231,1.231,0,0,0-.4.7,4.039,4.039,0,0,1,2.682,1.238A3.743,3.743,0,0,1,103.543,22l1.5-.107.114-.11Q105.421,21.534,105.072,21.169Z" fill="#563823"/>
      <path id="Path_692" data-name="Path 692" d="M117.916,11.006a.83.83,0,0,1,.02.661,2.031,2.031,0,0,0-.562.061.962.962,0,0,0-.445.287l-.6.687,1.6,4.628a1.08,1.08,0,0,1-.23,1.082l1.334.742a.325.325,0,0,1,.093.157c.044.127-.012.261-.167.4a1.155,1.155,0,0,1-.425.257c-.123.043-.37-.031-.739-.223a14.772,14.772,0,0,0-4.15-1.487,5.123,5.123,0,0,0-1.79-.118,6.424,6.424,0,0,1-.65-.566,2.167,2.167,0,0,1-.4-.721,12.122,12.122,0,0,1,1.587-2.218q.417-.456,1.215-1.377a2.749,2.749,0,0,0-1.329.158,20.78,20.78,0,0,0-2.9,1.367q-.693-.117-.8-.426a.431.431,0,0,1,.073-.448,3.954,3.954,0,0,1,1.148-.6q.836-.354,1.322-.522a12.751,12.751,0,0,1,1.458-.359,4.053,4.053,0,0,1,1.66.029,5.026,5.026,0,0,1,1-1.057q.416-.144.783.52a3.985,3.985,0,0,1,.28-.62q.258-.456.4-.505l.622-.2A.581.581,0,0,1,117.916,11.006Zm-1.191,6.4-1.449-4.2-1.523,1.717q-.39.445-1.349,1.847a14.428,14.428,0,0,1,2.079.5q1.019.318,2.033.624C116.713,17.736,116.782,17.575,116.725,17.409Z" fill="#563823"/>
      <path id="Path_693" data-name="Path 693" d="M133.223,12.732c-.015.239-.189.393-.524.464a1.935,1.935,0,0,0-.261-.026.771.771,0,0,0-.6.227,3.6,3.6,0,0,0-.35.516l-.337,5.528q-.033.547-.35.675l.953.649a.626.626,0,0,1,.027.16c-.011.189-.127.3-.348.337a4.535,4.535,0,0,1-.6-.015L129.8,20.53l-.126-.851a.541.541,0,0,0,.35-.517l.091-1.492c.005-.085-.082-.239-.262-.465a1.6,1.6,0,0,0-.415-.41,7.808,7.808,0,0,0-1.382,1.171Q126.877,19.034,126.28,19a3.128,3.128,0,0,1-1-.493,1.483,1.483,0,0,1-.413-.437q.026-.42.3-.509a4.111,4.111,0,0,0,.6.279,1.776,1.776,0,0,0,.87-.453,1.789,1.789,0,0,0,.635-.742.639.639,0,0,0,.043-.24,1.671,1.671,0,0,0-.457-1.341,2.118,2.118,0,0,0-1.43-.567,1.565,1.565,0,0,1-.351-.844,1.713,1.713,0,0,1,.535-.643,1.221,1.221,0,0,0-.768-.3c-.074,0-.185,0-.332,0s-.264.005-.351,0l-.028,0a.733.733,0,0,1-.142-.43.554.554,0,0,1,.337-.465,1.282,1.282,0,0,1,.614-.1,2.273,2.273,0,0,1,1.307.67,11.543,11.543,0,0,1,3.03-.406,3.349,3.349,0,0,1,2.144.9,1.963,1.963,0,0,1,1.3-.659Q133.252,12.248,133.223,12.732Zm-3.021,3.5.147-2.417q.047-.768-1.333-.852a5.69,5.69,0,0,0-1.326.088,2.282,2.282,0,0,0-1.159.447,3.7,3.7,0,0,1,1.347.936,2.809,2.809,0,0,1,.31,1.812q.951-.849,1.165-.836Q129.782,15.434,130.2,16.23Z" fill="#563823"/>
      <path id="Path_694" data-name="Path 694" d="M138.423,25q-.206.438-1.156.329-.913-.628-.612-1.266a1.553,1.553,0,0,1,.259-.355c.059-.066.219-.083.48-.053a1.638,1.638,0,0,1,.514.113.99.99,0,0,1,.473.554A.836.836,0,0,1,138.423,25Zm8.041-5.083a1.1,1.1,0,0,1-.748.6l-.414-.195a.891.891,0,0,0-.493-.116c-.167.062-.325.119-.474.173l-2.085,4.43q-.192.41-1.082.654l.426,1.4a.286.286,0,0,1-.024.094q-.135.286-.7.019a.972.972,0,0,1-.45-.316c-.071-.243-.164-.551-.278-.922q-.257-.772-.7-1.936a6.059,6.059,0,0,0-.859-1.533,5.007,5.007,0,0,0-1.253-1.264,1.743,1.743,0,0,1-.072-1.361.627.627,0,0,1,.189-.225,3.517,3.517,0,0,1,1.131-.364q.8-.17,3.255-.4a2.96,2.96,0,0,0-1.071-.818,19.033,19.033,0,0,0-2.878-.971.938.938,0,0,1-.108-.888.409.409,0,0,1,.41-.237q.561.193,1.2.445,1.51.608,1.832.758a3.581,3.581,0,0,1,1.614,1.574,2.986,2.986,0,0,1,1.618.051q.532.25.278.923l.94-.2a.947.947,0,0,1,.618.069A.365.365,0,0,1,146.464,19.919ZM141.4,23.914l1.919-4.077a2.55,2.55,0,0,1-.478.007,20.331,20.331,0,0,0-4.188.648l.511.648a11.74,11.74,0,0,1,1.609,3.142A.815.815,0,0,0,141.4,23.914Z" fill="#563823"/>
    </g>
    <circle id="Ellipse_51" data-name="Ellipse 51" cx="24.405" cy="24.405" r="24.405" transform="translate(96.308 23.291)" fill="none" stroke="#d69358" stroke-miterlimit="10" stroke-width="1.9"/>
    <path id="Path_695" data-name="Path 695" d="M132.663,80.586l-.119.013a5.764,5.764,0,0,1-2.556-.243,3.67,3.67,0,0,0,.483-.111,2.042,2.042,0,0,0,1.12-.75,1.462,1.462,0,0,0,.185-1.338,1.988,1.988,0,0,0-1.141-1.116c-.029-.015-.106-.055-1.514-.565-.773-.285-.886-.473-.9-.541l-.175-.915-.17.26a1.609,1.609,0,0,0-.385,1.233c.167.546.706.962,1.6,1.235a8.174,8.174,0,0,1,.833.269c.314.129.5.287.556.467a.34.34,0,0,1-.016.269,1.061,1.061,0,0,1-.644.39,4.8,4.8,0,0,1-1.785.118l-.117-.011-.159,1.053.033.042a4.1,4.1,0,0,0,2.28,1.318,6.51,6.51,0,0,0,1.616.217,4.824,4.824,0,0,0,1.026-.106l.113-.025Z" fill="#563823"/>
    <path id="Path_696" data-name="Path 696" d="M109.686,74.67l-.386.827a3.214,3.214,0,0,0-.732-1.137,1.069,1.069,0,0,0,.609-.514,1.376,1.376,0,0,0-.36-1.578,4.233,4.233,0,0,0-1.352-.948,12.922,12.922,0,0,0-2.67-.948c-1.247-.268-2.026-.088-2.313.528a1,1,0,0,0-.09.368l-.651-.3-.245.979.861.4-2.517,5.4-.012.051a.929.929,0,0,0,.478.95,1.921,1.921,0,0,0,.268.074l.042.011,1.5-.675-.2-.848-.562.117,2.122-4.552,1.26.588.418-.9-1.54-.718c-.121-.2-.166-.348-.126-.433.11-.236.643-.193,1.5.118.108.04.582.248,2.219,1.011.544.255.644.309.66.318.2.132.279.246.234.341s-.275.281-1.208.2l-.157-.013.048.332a5.778,5.778,0,0,0-2.931,1.39l-.085.067.622,1.1.116-.1a5.605,5.605,0,0,1,.657-.5l.137.063c.292.137.363.311.237.582-.085.181-.369.514-1.247,1.073l-.09.058.545,1.243.13-.126a3.778,3.778,0,0,1,1.6-.971,2.48,2.48,0,0,1,1.8.114.586.586,0,0,1,.056.029l-1.485,3.184a.744.744,0,0,0,.035.666.9.9,0,0,0,.489.472l.2.074,1.537-.774-.236-.741-.6.058,2.136-4.579,1.05.489.418-.9Zm-1.1,1.923a2.955,2.955,0,0,0-1.262-.274,3.7,3.7,0,0,0-.676.065,1.454,1.454,0,0,0-.511-1.283,1.569,1.569,0,0,1,1.356-.094,2.921,2.921,0,0,1,1.251,1.667A1.554,1.554,0,0,0,108.585,76.593Z" fill="#563823"/>
    <path id="Path_697" data-name="Path 697" d="M120.717,76.278h-7.545v1.089h2.2a1.743,1.743,0,0,0-.107.627,2.7,2.7,0,0,0,.047.514l-.891-.051-.055.086a2.733,2.733,0,0,0-.336,1.471,5.044,5.044,0,0,0,.607,2.531,2.767,2.767,0,0,0,2.569,1.465,2.286,2.286,0,0,0,2.134-1.508,5.318,5.318,0,0,0,.491-2.274,4.743,4.743,0,0,0-.784-2.861h1.667Zm-5.31,2.561a1.936,1.936,0,0,0,1.2,1.143l.091.035.88-.661-.184-.14c-.54-.412-.814-.806-.814-1.174a.666.666,0,0,1,.136-.419.372.372,0,0,1,.319-.157c.5,0,.879.323,1.174.987a4.25,4.25,0,0,1,.361,1.735,3.7,3.7,0,0,1-.347,1.609,1.285,1.285,0,0,1-1.188.87,1.538,1.538,0,0,1-1.413-.962,3.84,3.84,0,0,1-.41-1.791A3.285,3.285,0,0,1,115.407,78.839Z" fill="#563823"/>
    <path id="Path_698" data-name="Path 698" d="M125.1,79.094l-.143.062a4.975,4.975,0,0,1-3.788-.045l-.214-.086.339,1.731.14-.055a4.953,4.953,0,0,1,1.83-.312,5.515,5.515,0,0,1,1.963.356l.21.08Z" fill="#563823"/>
    <path id="Path_699" data-name="Path 699" d="M139.32,76.335a3.78,3.78,0,0,0-.843-1.958,2.8,2.8,0,0,0-1.4-.891,1.92,1.92,0,0,0-1.854.413,2.335,2.335,0,0,0-.7,2.265,3.8,3.8,0,0,0,.851,1.952,2.892,2.892,0,0,0,1.392.9,2.153,2.153,0,0,0,.606.091,1.879,1.879,0,0,0,1.258-.495A2.351,2.351,0,0,0,139.32,76.335Zm-1.528,1.381a.7.7,0,0,1-.729.126,1.524,1.524,0,0,1-.692-.47,2.826,2.826,0,0,1-.6-1.349,1.347,1.347,0,0,1,.278-1.334.713.713,0,0,1,.731-.14,1.514,1.514,0,0,1,.682.477,2.834,2.834,0,0,1,.6,1.35A1.344,1.344,0,0,1,137.792,77.716Z" fill="#563823"/>
    <path id="Path_700" data-name="Path 700" d="M144.659,72.775a3.6,3.6,0,0,0-1.494-.988c-.225-.086-.714-.221-1.495-.414a1.89,1.89,0,0,1-.945-.414,2.5,2.5,0,0,1-.4-1.008l-.047-.2-.157.137a1.555,1.555,0,0,0-.554.912,1.2,1.2,0,0,0,.308,1.031c.1.119.4.325,1.812.743a4.395,4.395,0,0,1,1.906.909,1.31,1.31,0,0,1,.335.739.753.753,0,0,1-.256.693.847.847,0,0,1-.632.213.758.758,0,0,1-.588-.259,1.465,1.465,0,0,1-.2-.372l-.038-.092-.1.016a5.628,5.628,0,0,0-1.013.281l-.121.044.048.119a2.844,2.844,0,0,0,.453.8,1.957,1.957,0,0,0,1.459.717h.073a2.189,2.189,0,0,0,1.466-.571,2.033,2.033,0,0,0,.758-1.47A2.174,2.174,0,0,0,144.659,72.775Z" fill="#563823"/>
    <path id="Path_701" data-name="Path 701" d="M149.108,68.063a3,3,0,0,0-1.169-1.842l-.1-.069a2.03,2.03,0,0,0,.444-1.143,1.32,1.32,0,0,0-.594-1.224,2.632,2.632,0,0,0-.422-.225l-.061-.028-.771.485.12.11a1.979,1.979,0,0,1,.483.586.65.65,0,0,1-.138.636,4.435,4.435,0,0,1-.388.471,1.826,1.826,0,0,0-1.377.742,2.11,2.11,0,0,0-.329.765c-.39-.362-.805-.742-.879-.794a1.338,1.338,0,0,0-.967-.356.834.834,0,0,0-.554.357l-.023.031-.066,1.61.849-.064.131-.4q1.189,1.042,1.659,1.46a22.86,22.86,0,0,0,1.881,1.493,1.428,1.428,0,0,0,.832.252c.041,0,.082,0,.124-.005a1.085,1.085,0,0,0,.894-.439A2.89,2.89,0,0,0,149.108,68.063Zm-1.327,1.552c-.1.137-.315.089-.649-.145a9.94,9.94,0,0,1-1.372-1.347,2.091,2.091,0,0,1,.3-.754.839.839,0,0,1,.525-.367.761.761,0,0,1,.608.148,1.967,1.967,0,0,1,.672,1.115A1.564,1.564,0,0,1,147.781,69.615Z" fill="#563823"/>
    <g id="Group_714" data-name="Group 714">
      <g id="Group_713" data-name="Group 713">
        <path id="Path_702" data-name="Path 702" d="M100.1,68.8a7.532,7.532,0,0,0-.6-1.227c-1.621-2.19-3.269-4.359-4.911-6.534-.128-.171-.271-.33-.407-.5l-.82.618c.449.6.877,1.15,1.289,1.717.166.228.535.518.127.759a3.345,3.345,0,0,1-1.241.329c-.071.009-.32-.413-.265-.516.3-.552-.129-.79-.386-1.124-.647.8-.728,1.306-.324,1.936a1.536,1.536,0,0,0,1.961.675l-.075.771a5.032,5.032,0,0,0-1.017-.086.578.578,0,0,0-.526.8,1.445,1.445,0,0,0,1.076.949c.186.034.512.121.515.194a1.052,1.052,0,0,1-.184.713.684.684,0,0,1-.642.046,3.1,3.1,0,0,1-.888-.722,16.249,16.249,0,0,1-.926-1.345l-.883.521a22.407,22.407,0,0,1,.806,2.625,21.182,21.182,0,0,1,.187,2.643l1.177.281c-.084-1.142-.162-2.2-.227-3.086a6.392,6.392,0,0,0,1.953.074c.721-.2.907-.935.832-1.7a1.8,1.8,0,0,0,1.929-.72.381.381,0,0,1,.094.07c.269.348.537.7.8,1.048.471.629.428.929-.2,1.406-1.258.95-2.518,1.9-3.8,2.862l.677.9a.742.742,0,0,0,.157-.053q1.741-1.3,3.48-2.611c.864-.649.978-.642,1.743.124l.856-.646C100.825,69.674,100.86,68.74,100.1,68.8Zm-3.681-1.562a.909.909,0,0,1-.776.07c-.516-.3-.519-1.484-.035-2.438a6.018,6.018,0,0,1,1.128,1.249C96.978,66.478,96.675,67.081,96.415,67.242Z" fill="#563823"/>
      </g>
    </g>
  </g>
</svg>
