<svg id="planner" xmlns="http://www.w3.org/2000/svg" width="24" height="24" viewBox="0 0 24 24">
  <path id="Path_560" data-name="Path 560" d="M20.355,15.71a4.649,4.649,0,0,0-4.625,4.258H12.613v-3.1H7.194V14.936h5.419V8.742h1.548v3.871H21.9V6.967l2.5-2.5a2.029,2.029,0,0,0-2.87-2.87L18.259,4.871h-4.1v3.1H12.613V1H4.324L1,4.324V14.936H6.419v1.935H1v6.968H12.613v-3.1h3.117a4.643,4.643,0,1,0,4.625-5.032ZM18.193,6.032,21.129,3.1l.614.614L18.806,6.646Zm-.378.717,1.437,1.437-1.625.542a.283.283,0,0,1-.368-.264.3.3,0,0,1,.014-.088Zm2.153,1.059-.614-.614L22.29,4.257l.614.614Zm3-6.033a1.255,1.255,0,0,1,.888,2.143l-.407.407L21.676,2.548l.407-.407a1.247,1.247,0,0,1,.888-.367ZM14.935,5.645h2.549l-.178.178-.77,2.308A1.053,1.053,0,0,0,17.87,9.462l2.307-.769.952-.952v4.1H14.935ZM2.322,4.1,4.1,2.322V4.1Zm1,.774H4.871V3.323H10.29V5.645H3.323Zm-1.548,0h.774V6.419h8.516V2.548H4.871V1.774h6.968V14.161H1.774ZM11.839,23.065H1.774V17.645H11.839Zm8.516,1.161a3.871,3.871,0,1,1,3.871-3.871A3.875,3.875,0,0,1,20.355,24.226Z" transform="translate(-1 -1)" fill="#fff"/>
  <path id="Path_561" data-name="Path 561" d="M46.2,50.661l-1.337-1.337-.574.574L46.2,51.81l3.943-3.943-.574-.574Z" transform="translate(-27.891 -29.672)" fill="#fff"/>
  <path id="Path_562" data-name="Path 562" d="M6.218,50.437A1.218,1.218,0,1,0,5,49.218,1.22,1.22,0,0,0,6.218,50.437Zm0-1.625a.406.406,0,1,1-.406.406A.406.406,0,0,1,6.218,48.812Z" transform="translate(-3.375 -30.092)" fill="#fff"/>
  <path id="Path_563" data-name="Path 563" d="M14.218,50.437A1.218,1.218,0,1,0,13,49.218,1.22,1.22,0,0,0,14.218,50.437Zm0-1.625a.406.406,0,1,1-.406.406A.406.406,0,0,1,14.218,48.812Z" transform="translate(-8.379 -30.092)" fill="#fff"/>
  <path id="Path_564" data-name="Path 564" d="M22.218,50.437A1.218,1.218,0,1,0,21,49.218,1.22,1.22,0,0,0,22.218,50.437Zm0-1.625a.406.406,0,1,1-.406.406A.406.406,0,0,1,22.218,48.812Z" transform="translate(-13.299 -30.092)" fill="#fff"/>
  <path id="Path_565" data-name="Path 565" d="M39,25h4.874v.812H39Z" transform="translate(-24.464 -15.725)" fill="#fff"/>
  <path id="Path_566" data-name="Path 566" d="M5,17h.812v.812H5Z" transform="translate(-3.375 -10.817)" fill="#fff"/>
  <path id="Path_567" data-name="Path 567" d="M9,17h7.311v.812H9Z" transform="translate(-5.751 -10.817)" fill="#fff"/>
  <path id="Path_568" data-name="Path 568" d="M5,21h8.935v.812H5Z" transform="translate(-3.375 -13.271)" fill="#fff"/>
  <path id="Path_569" data-name="Path 569" d="M5,28.249h8.935V25H5Zm.812-2.437h7.311v1.625H5.812Z" transform="translate(-3.375 -15.777)" fill="#fff"/>
</svg>
