<svg id="process" xmlns="http://www.w3.org/2000/svg" width="24" height="24" viewBox="0 0 24 24">
  <path id="Path_577" data-name="Path 577" d="M284.621,280.012v-3.4l-1.3-.333-.028-.066.686-1.157-2.407-2.407-1.157.686-.066-.028-.333-1.3h-3.4l-.333,1.3-.066.028-1.157-.686-2.407,2.407.686,1.157-.028.066-1.3.333v3.4l1.3.333.028.066-.686,1.157,2.407,2.407,1.157-.686.066.028.333,1.3h3.4l.333-1.3.066-.027,1.157.686,2.407-2.407-.686-1.157.028-.066Zm-1.777,1.414-1.417,1.417-.963-.572-.217.1a4.508,4.508,0,0,1-.43.178l-.227.081-.277,1.085h-2l-.277-1.085-.227-.081a4.255,4.255,0,0,1-.43-.178l-.217-.1-.963.572-1.417-1.417.572-.963-.1-.217a4.518,4.518,0,0,1-.178-.43l-.081-.227-1.086-.277v-2l1.085-.277.081-.227a4.251,4.251,0,0,1,.178-.43l.1-.217-.572-.963,1.417-1.417.963.572.217-.1a4.519,4.519,0,0,1,.43-.178l.227-.081.277-1.085h2l.277,1.085.227.081a4.259,4.259,0,0,1,.43.178l.217.1.963-.572,1.417,1.417-.572.963.1.217a4.519,4.519,0,0,1,.178.43l.081.227,1.085.277v2l-1.085.277-.081.227a4.255,4.255,0,0,1-.178.43l-.1.217Zm0,0" transform="translate(-260.621 -260.621)" fill="#52341e"/>
  <path id="Path_578" data-name="Path 578" d="M323.606,320a3.606,3.606,0,1,0,3.606,3.606A3.61,3.61,0,0,0,323.606,320Zm0,6.31a2.7,2.7,0,1,1,2.7-2.7A2.707,2.707,0,0,1,323.606,326.311Zm0,0" transform="translate(-305.916 -305.916)" fill="#52341e"/>
  <path id="Path_579" data-name="Path 579" d="M353.8,352a1.8,1.8,0,1,0,1.8,1.8A1.8,1.8,0,0,0,353.8,352Zm0,2.7a.9.9,0,1,1,.9-.9A.9.9,0,0,1,353.8,354.7Zm0,0" transform="translate(-335.383 -335.383)" fill="#52341e"/>
  <path id="Path_580" data-name="Path 580" d="M154.851,7.632a2.709,2.709,0,0,0,.755,1.139v.382l-2.143.8A2.264,2.264,0,0,0,152,12.067v2.357h10.818V12.067a2.265,2.265,0,0,0-1.462-2.11l-2.144-.8V8.772a2.7,2.7,0,0,0,.755-1.139,1.8,1.8,0,0,0,1.5-1.772v-1.8a4.057,4.057,0,1,0-8.113,0v1.8a1.8,1.8,0,0,0,1.5,1.772Zm3.459,1.709-.9,1.5-.9-1.5V9.308a2.654,2.654,0,0,0,1.8,0Zm-2.447.679.909,1.514-.9.451-.583-1.749Zm6.053,2.048v1.455H152.9V12.067a1.358,1.358,0,0,1,.878-1.266l.663-.248.9,2.7,2.066-1.033,2.066,1.033.9-2.7.663.249a1.358,1.358,0,0,1,.877,1.266Zm-2.384-1.831-.583,1.749-.9-.451.909-1.514Zm-2.123-1.672a1.8,1.8,0,0,1-1.8-1.8V4.928a3.489,3.489,0,0,0,1.8-.719,3.485,3.485,0,0,0,1.8.719V6.761A1.8,1.8,0,0,1,157.409,8.564Zm2.7-1.928V5.084a.893.893,0,0,1,0,1.552ZM157.409.9a3.159,3.159,0,0,1,3.155,3.155v.251a1.783,1.783,0,0,0-.9-.251h-.077a2.608,2.608,0,0,1-1.858-.769l-.319-.319-.319.319a2.609,2.609,0,0,1-1.858.769h-.077a1.783,1.783,0,0,0-.9.251V4.057A3.159,3.159,0,0,1,157.409.9Zm-2.7,4.182V6.636a.893.893,0,0,1,0-1.552Zm0,0" transform="translate(-145.409 0)" fill="#52341e"/>
  <path id="Path_581" data-name="Path 581" d="M0,299.719H9.015V288H0ZM.9,288.9H8.113v9.916H.9Zm0,0" transform="translate(0 -275.719)" fill="#52341e"/>
  <path id="Path_582" data-name="Path 582" d="M32,320h5.409v.9H32Zm0,0" transform="translate(-30.197 -304.601)" fill="#52341e"/>
  <path id="Path_583" data-name="Path 583" d="M32,352h.9v.9H32Zm0,0" transform="translate(-30.197 -335.061)" fill="#52341e"/>
  <path id="Path_584" data-name="Path 584" d="M64,352h3.606v.9H64Zm0,0" transform="translate(-60.285 -335.061)" fill="#52341e"/>
  <path id="Path_585" data-name="Path 585" d="M32,384h5.409v.9H32Zm0,0" transform="translate(-30.197 -365.521)" fill="#52341e"/>
  <path id="Path_586" data-name="Path 586" d="M32,416h5.409v.9H32Zm0,0" transform="translate(-30.197 -396.507)" fill="#52341e"/>
  <path id="Path_587" data-name="Path 587" d="M112,448h.9v.9H112Zm0,0" transform="translate(-106.61 -426.704)" fill="#52341e"/>
  <path id="Path_588" data-name="Path 588" d="M32,448h3.606v.9H32Zm0,0" transform="translate(-30.197 -426.704)" fill="#52341e"/>
  <path id="Path_589" data-name="Path 589" d="M167.446,346.981l-.637-.637-2.122,2.122,2.122,2.122.637-.637-1.034-1.034h3.419v-.9h-3.419Zm0,0" transform="translate(-157.014 -330.257)" fill="#52341e"/>
  <path id="Path_590" data-name="Path 590" d="M72.9,77.367a.451.451,0,0,1,.451-.451h2.067L74.386,77.95l.637.637,2.122-2.122-2.122-2.122-.637.637,1.034,1.034H73.352A1.354,1.354,0,0,0,72,77.367V85.48h.9Zm0,0" transform="translate(-67.81 -70.902)" fill="#52341e"/>
  <path id="Path_591" data-name="Path 591" d="M338.7,105.352v5.673l-1.034-1.034-.637.637,2.122,2.122,2.122-2.122-.637-.637-1.034,1.034v-5.673A1.354,1.354,0,0,0,338.254,104H336v.9h2.254A.451.451,0,0,1,338.7,105.352Zm0,0" transform="translate(-321.138 -99.345)" fill="#52341e"/>
</svg>
